<mxfile host="app.diagrams.net" modified="2023-12-05T14:31:51.315Z" agent="Mozilla/5.0 (Windows NT 10.0; Win64; x64) AppleWebKit/537.36 (KHTML, like Gecko) Chrome/119.0.0.0 Safari/537.36" version="22.1.5" etag="ueky1tmbpN5QH4oxqvc-" type="github">
  <diagram name="Page-1" id="HEoOxhop8Ih9AfGgCKOJ">
    <mxGraphModel>
      <root>
        <mxCell id="0" />
        <mxCell id="1" parent="0" />
      </root>
    </mxGraphModel>
  </diagram>
</mxfile>
